<svg width="55" height="55" viewBox="0 0 55 55" fill="none" xmlns="http://www.w3.org/2000/svg">
<rect x="2" y="2" width="51" height="51" rx="8" stroke="#BD3834" stroke-width="4"/>
<g filter="url(#filter0_d_4_485)">
<path d="M15.2776 31.652C14.2446 32.1997 13 31.4509 13 30.2817V30.2817C13 29.7075 13.3172 29.1803 13.8244 28.9114L24.428 23.2889C25.461 22.7412 26.7056 23.49 26.7056 24.6592V24.6592C26.7056 25.2334 26.3884 25.7606 25.8812 26.0295L15.2776 31.652ZM26.7056 37.5489C26.7056 38.7182 25.461 39.467 24.428 38.9192L13.8244 33.2968C13.3172 33.0278 13 32.5007 13 31.9265V31.9265C13 30.7572 14.2446 30.0084 15.2776 30.5562L25.8812 36.1786C26.3884 36.4476 26.7056 36.9748 26.7056 37.5489V37.5489Z" fill="#BD3834"/>
<path d="M40.7224 23.475C41.7554 22.9272 43 23.676 43 24.8453V24.8453C43 25.4194 42.6828 25.9466 42.1756 26.2156L31.572 31.838C30.539 32.3857 29.2944 31.6369 29.2944 30.4677V30.4677C29.2944 29.8935 29.6116 29.3664 30.1188 29.0974L40.7224 23.475ZM29.2944 17.578C29.2944 16.4087 30.539 15.6599 31.572 16.2077L42.1756 21.8301C42.6828 22.0991 43 22.6263 43 23.2004V23.2004C43 24.3697 41.7554 25.1185 40.7224 24.5707L30.1188 18.9483C29.6116 18.6793 29.2944 18.1521 29.2944 17.578V17.578Z" fill="#BD3834"/>
</g>
<defs>
<filter id="filter0_d_4_485" x="11" y="16.0248" width="34" height="29.0772" filterUnits="userSpaceOnUse" color-interpolation-filters="sRGB">
<feFlood flood-opacity="0" result="BackgroundImageFix"/>
<feColorMatrix in="SourceAlpha" type="matrix" values="0 0 0 0 0 0 0 0 0 0 0 0 0 0 0 0 0 0 127 0" result="hardAlpha"/>
<feOffset dy="4"/>
<feGaussianBlur stdDeviation="1"/>
<feComposite in2="hardAlpha" operator="out"/>
<feColorMatrix type="matrix" values="0 0 0 0 0 0 0 0 0 0 0 0 0 0 0 0 0 0 0.25 0"/>
<feBlend mode="normal" in2="BackgroundImageFix" result="effect1_dropShadow_4_485"/>
<feBlend mode="normal" in="SourceGraphic" in2="effect1_dropShadow_4_485" result="shape"/>
</filter>
</defs>
</svg>
