<svg width="1512" height="1080" viewBox="0 0 1512 1080" fill="none" xmlns="http://www.w3.org/2000/svg">
<mask id="mask0_44_4012" style="mask-type:luminance" maskUnits="userSpaceOnUse" x="0" y="-29" width="1584" height="1120">
<path d="M0 -28.7986H1583.71V1091H0V-28.7986Z" fill="white"/>
</mask>
<g mask="url(#mask0_44_4012)">
<path style="mix-blend-mode:multiply" opacity="0.3" d="M1496.86 1155.21C1495.96 1217.78 1448.01 1267.54 1389.66 1266.33C1331.45 1265.13 1285.01 1213.56 1285.92 1151.14C1286.82 1088.56 1334.77 1038.95 1393.12 1040.16C1451.33 1041.21 1497.77 1092.78 1496.86 1155.21Z" fill="url(#paint0_radial_44_4012)"/>
<path style="mix-blend-mode:multiply" opacity="0.3" d="M1348.64 1104.24C1347.74 1166.67 1299.64 1216.27 1241.44 1215.22C1183.23 1214.16 1136.64 1162.6 1137.7 1100.02C1138.6 1037.6 1186.55 987.838 1244.75 988.893C1303.11 990.1 1349.55 1041.67 1348.64 1104.24Z" fill="url(#paint1_radial_44_4012)"/>
<path style="mix-blend-mode:multiply" opacity="0.3" d="M1175.24 1111.18C1174.34 1173.45 1126.39 1223.21 1068.04 1222.15C1009.84 1220.95 963.394 1169.38 964.449 1106.81C965.203 1044.53 1013.15 994.774 1071.51 995.83C1129.71 997.036 1176.15 1048.6 1175.24 1111.18Z" fill="url(#paint2_radial_44_4012)"/>
<path style="mix-blend-mode:multiply" opacity="0.3" d="M1025.97 1019.35C1025.06 1081.78 977.115 1131.53 918.762 1130.48C860.56 1129.27 814.119 1077.7 815.024 1015.13C815.929 952.706 863.878 903.098 922.23 904.153C980.433 905.209 1026.87 956.777 1025.97 1019.35Z" fill="url(#paint3_radial_44_4012)"/>
<path style="mix-blend-mode:multiply" opacity="0.3" d="M882.272 1058.4C881.217 1120.83 833.268 1170.74 775.066 1169.53C716.713 1168.32 670.272 1116.76 671.176 1054.33C672.081 991.909 720.181 942.151 778.383 943.206C836.585 944.412 883.177 995.98 882.272 1058.4Z" fill="url(#paint4_radial_44_4012)"/>
<path style="mix-blend-mode:multiply" opacity="0.3" d="M758.781 1002.92C757.876 1065.49 710.078 1115.1 651.725 1113.89C593.523 1112.84 547.082 1061.27 547.836 998.845C548.741 936.27 596.84 886.512 655.042 887.718C713.395 888.924 759.837 940.492 758.781 1002.92Z" fill="url(#paint5_radial_44_4012)"/>
<path style="mix-blend-mode:multiply" opacity="0.3" d="M639.21 1100.62C638.456 1149.63 600.912 1188.53 555.224 1187.63C509.386 1186.72 472.897 1146.31 473.651 1097.16C474.556 1048.15 512.1 1009.25 557.788 1010.15C603.475 1011.06 639.964 1051.47 639.21 1100.62Z" fill="url(#paint6_radial_44_4012)"/>
<path style="mix-blend-mode:multiply" opacity="0.3" d="M557.939 1118.11C557.336 1167.12 519.791 1206.02 473.953 1205.12C428.266 1204.21 391.776 1163.8 392.53 1114.8C393.284 1065.79 430.98 1026.74 476.667 1027.64C522.354 1028.55 558.844 1069.11 558.09 1118.11H557.939Z" fill="url(#paint7_radial_44_4012)"/>
<path d="M85.3852 1154.15C86.1391 1111.03 117.2 1076.5 154.896 1077.25C158.716 1077.35 162.435 1077.8 166.054 1078.61C179.474 1048.45 207.067 1028.1 238.581 1028.7C281.252 1029.6 315.781 1068.66 317.138 1117.21C326.638 1110.27 337.946 1106.2 350.16 1106.5C362.826 1106.81 374.587 1111.48 384.086 1119.47C392.077 1079.66 423.591 1050.26 460.684 1050.86C479.531 1051.32 496.872 1059.61 510.14 1072.73C516.172 1055.09 527.179 1040.31 541.352 1030.66C539.392 1022.22 538.337 1013.47 538.488 1004.42C539.242 951.499 577.39 909.431 623.529 910.335C661.526 911.089 693.191 940.944 702.539 981.052C712.793 975.926 724.101 973.212 735.862 973.513C758.631 973.966 778.986 985.274 793.16 1002.77C801.754 990.853 814.722 983.314 829.197 983.465C830.705 983.565 832.263 983.716 833.871 983.917C840.506 942.301 872.622 910.938 910.921 911.843C953.442 912.597 987.519 952.856 986.765 1001.71C986.614 1011.21 985.106 1020.26 982.543 1029C986.162 1028.4 989.831 1028.1 993.55 1028.1C1015.72 1028.55 1035.32 1040.01 1048.74 1057.8C1063.66 1040.31 1084.77 1029.76 1107.69 1030.06C1123.37 1030.36 1137.7 1035.79 1149.91 1044.68C1166.65 1020.26 1192.89 1004.57 1221.99 1005.33C1265.41 1006.08 1301.15 1042.12 1308.69 1089.31C1324.67 1068.05 1348.34 1054.63 1374.73 1055.24C1421.62 1056.14 1458.87 1100.32 1458.11 1154C1458.01 1157.12 1457.81 1160.23 1457.51 1163.35C1467.01 1158.37 1477.56 1155.66 1488.57 1155.81C1514.5 1156.26 1536.82 1172.85 1548.73 1196.97C1561.4 1175.86 1582.51 1162.29 1606.33 1162.75C1614.93 1162.9 1622.92 1164.86 1630.46 1168.32C1636.19 1095.19 1690.32 1038.5 1755.46 1039.71C1823.61 1041.06 1877.74 1105.45 1876.69 1183.55C1875.48 1261.66 1819.39 1323.78 1751.23 1322.42C1751.13 1322.42 1751.08 1322.42 1751.08 1322.42C1751.18 1324.03 1751.18 1325.64 1751.08 1327.25C1750.48 1365.1 1723.34 1395.4 1690.32 1394.65C1667.85 1394.2 1648.7 1379.72 1638.75 1358.76C1628.35 1365.55 1616.28 1369.32 1603.32 1369.17C1579.94 1368.72 1559.74 1354.99 1547.53 1334.19C1536.52 1354.39 1517.07 1367.51 1494.75 1367.06C1482.54 1366.75 1471.23 1362.38 1461.73 1355.14C1449.22 1367.51 1432.93 1374.6 1415.14 1374.44C1407.45 1374.29 1400.06 1372.64 1393.12 1369.92C1371.71 1402.79 1337.18 1423.9 1298.58 1423.15C1263.9 1422.54 1232.99 1404.3 1212.19 1376.25C1191.53 1393.44 1165.74 1403.4 1138.15 1402.94C1098.65 1402.19 1063.82 1380.02 1041.95 1346.55C1021.45 1365.25 995.36 1376.25 967.012 1375.8C941.832 1375.35 918.611 1365.7 899.763 1349.57C884.383 1354.99 867.948 1357.86 851.06 1357.56C819.698 1356.95 790.747 1345.65 766.471 1327.1C749.282 1335.84 730.283 1340.52 710.078 1340.07C697.714 1339.92 685.802 1337.8 674.494 1333.88C652.479 1369.62 615.99 1392.84 574.826 1391.94C554.621 1391.48 535.623 1385.3 519.187 1374.9C497.324 1404.15 464.906 1422.39 428.868 1421.64C411.378 1421.34 394.942 1416.51 380.166 1408.37C364.937 1416.81 347.747 1421.49 329.653 1421.19C292.561 1420.43 259.841 1399.02 240.088 1366.6C223.955 1378.06 204.805 1384.7 184.148 1384.25C127.755 1383.19 82.8219 1329.81 83.7266 1265.13C84.0281 1242.51 90.0594 1221.55 100.011 1203.91C90.5118 1190.19 85.0836 1173 85.3852 1154.15Z" fill="#F1F2F2"/>
<path style="mix-blend-mode:multiply" opacity="0.1" d="M333.628 1031.46C345.238 1038.85 350.817 1046.39 363.935 1043.37C365.292 1064.18 365.443 1062.52 365.895 1083.33C348.003 1083.73 330.16 1084.13 312.368 1084.53C319.404 1066.84 326.491 1049.15 333.628 1031.46ZM355.039 978.233C357.753 971.598 360.417 964.964 363.031 958.329C363.785 1000.1 363.181 1030.55 363.935 1043.37C350.817 1046.39 345.238 1038.85 333.628 1031.46C340.765 1013.67 347.902 995.924 355.039 978.233ZM363.935 1043.37C376.752 1048.65 388.513 1036.28 395.75 1030.1C403.591 1047.49 411.482 1064.83 419.423 1082.12C401.53 1082.52 383.688 1082.93 365.895 1083.33C365.443 1062.52 365.292 1064.18 363.935 1043.37ZM363.031 958.329C366.046 964.863 369.062 971.397 372.078 977.931C379.918 995.321 387.809 1012.71 395.75 1030.1C388.513 1036.28 376.752 1048.65 363.935 1043.37C363.181 1030.55 363.785 1000.1 363.031 958.329Z" fill="url(#paint8_linear_44_4012)"/>
<path d="M320.962 903.595L310.106 1004.47H276.18L320.962 903.595Z" fill="url(#paint9_linear_44_4012)"/>
<path d="M365.896 1004.47H331.819L320.962 903.595L365.896 1004.47Z" fill="url(#paint10_linear_44_4012)"/>
<path d="M320.963 903.595V1012.91L310.106 1004.47L320.963 903.595Z" fill="#BCBEC0"/>
<path d="M331.819 1004.47L320.962 1012.91V903.595L331.819 1004.47Z" fill="url(#paint11_linear_44_4012)"/>
<path style="mix-blend-mode:multiply" opacity="0.1" d="M488.934 912.943C500.394 920.332 505.973 927.871 519.091 925.006C520.448 945.814 520.599 944.005 521.051 964.813C503.158 965.215 485.315 965.617 467.523 966.019C474.66 948.327 481.797 930.635 488.934 912.943ZM510.345 859.868C512.959 853.133 515.623 846.448 518.337 839.814C519.091 881.58 518.337 912.189 519.091 925.006C505.973 927.871 500.394 920.332 488.934 912.943C496.071 895.251 503.208 877.56 510.345 859.868ZM519.091 925.006C531.907 930.283 543.668 917.768 550.906 911.586C558.747 928.977 566.638 946.367 574.579 963.757C556.686 964.159 538.843 964.511 521.051 964.813C520.599 944.005 520.448 945.814 519.091 925.006ZM518.337 839.814C521.252 846.347 524.217 852.881 527.233 859.415C535.074 876.806 542.965 894.196 550.906 911.586C543.668 917.768 531.907 930.283 519.091 925.006C518.337 912.189 519.091 881.58 518.337 839.814Z" fill="url(#paint12_linear_44_4012)"/>
<path d="M473.554 776.786L462.698 877.66H428.621L473.554 776.786Z" fill="url(#paint13_linear_44_4012)"/>
<path d="M518.337 877.66H484.411L473.555 776.786L518.337 877.66Z" fill="url(#paint14_linear_44_4012)"/>
<path d="M473.555 776.786V886.104L462.698 877.66L473.555 776.786Z" fill="#BCBEC0"/>
<path d="M484.411 877.66L473.555 886.104V776.786L484.411 877.66Z" fill="url(#paint15_linear_44_4012)"/>
<path style="mix-blend-mode:multiply" opacity="0.1" d="M1409.61 1205.91C1391.82 1205.51 1373.98 1205.16 1356.09 1204.86C1356.54 1183.9 1356.69 1185.71 1358.05 1164.9C1371.16 1167.92 1376.74 1160.23 1388.2 1152.84C1395.34 1170.53 1402.48 1188.22 1409.61 1205.91ZM1388.2 1152.84C1376.74 1160.23 1371.16 1167.92 1358.05 1164.9C1358.8 1152.08 1358.05 1121.48 1358.8 1079.71C1361.51 1086.34 1364.23 1093.03 1366.94 1099.76C1373.98 1117.45 1381.07 1135.15 1388.2 1152.84ZM1356.09 1204.86C1338.29 1204.46 1320.45 1204.05 1302.56 1203.65C1310.5 1186.26 1318.39 1168.87 1326.23 1151.48C1333.47 1157.66 1345.23 1170.18 1358.05 1164.9C1356.69 1185.71 1356.54 1183.9 1356.09 1204.86ZM1358.05 1164.9C1345.23 1170.18 1333.47 1157.66 1326.23 1151.48C1334.17 1134.09 1342.06 1116.7 1349.9 1099.31C1352.92 1092.78 1355.89 1086.24 1358.8 1079.71C1358.05 1121.48 1358.8 1152.08 1358.05 1164.9Z" fill="url(#paint16_linear_44_4012)"/>
<path d="M1321.1 1028.44L1310.25 1129.32H1276.32L1321.1 1028.44Z" fill="url(#paint17_linear_44_4012)"/>
<path d="M1365.89 1129.32H1331.96L1321.1 1028.44L1365.89 1129.32Z" fill="url(#paint18_linear_44_4012)"/>
<path d="M1321.1 1028.44V1137.76L1310.25 1129.32L1321.1 1028.44Z" fill="#BCBEC0"/>
<path d="M1331.96 1129.32L1321.1 1137.76V1028.44L1331.96 1129.32Z" fill="url(#paint19_linear_44_4012)"/>
<path d="M1039.74 1034.32L1028.89 1135.2H994.961L1039.74 1034.32Z" fill="url(#paint20_linear_44_4012)"/>
<path d="M1084.53 1135.2H1050.6L1039.74 1034.32L1084.53 1135.2Z" fill="url(#paint21_linear_44_4012)"/>
<path d="M1039.74 1034.32V1143.64L1028.89 1135.2L1039.74 1034.32Z" fill="#BCBEC0"/>
<path d="M1050.6 1135.2L1039.74 1143.64V1034.32L1050.6 1135.2Z" fill="url(#paint22_linear_44_4012)"/>
<path style="mix-blend-mode:multiply" opacity="0.1" d="M1406.6 938.576C1388.81 938.174 1370.96 937.772 1353.07 937.37C1353.52 916.562 1353.67 918.372 1355.03 897.564C1368.15 900.428 1373.73 892.889 1385.34 885.501C1392.37 903.193 1399.46 920.885 1406.6 938.576ZM1385.34 885.501C1373.73 892.889 1368.15 900.428 1355.03 897.564C1355.78 884.747 1355.18 854.138 1355.78 812.371C1358.5 819.006 1361.21 825.69 1363.93 832.425C1371.06 850.117 1378.2 867.809 1385.34 885.501ZM1353.07 937.37C1335.28 937.069 1317.44 936.717 1299.54 936.315C1307.48 918.924 1315.37 901.534 1323.22 884.144C1330.45 890.326 1342.21 902.841 1355.03 897.564C1353.67 918.372 1353.52 916.562 1353.07 937.37ZM1355.03 897.564C1342.21 902.841 1330.45 890.326 1323.22 884.144C1331.16 866.754 1339.05 849.363 1346.89 831.973C1349.9 825.439 1352.87 818.905 1355.78 812.371C1355.18 854.138 1355.78 884.747 1355.03 897.564Z" fill="url(#paint23_linear_44_4012)"/>
<path d="M1318.09 761.105L1307.23 861.979H1273.31L1318.09 761.105Z" fill="url(#paint24_linear_44_4012)"/>
<path d="M1363.02 861.979H1328.95L1318.09 761.105L1363.02 861.979Z" fill="url(#paint25_linear_44_4012)"/>
<path d="M1318.09 761.105V870.423L1307.23 861.979L1318.09 761.105Z" fill="#BCBEC0"/>
<path d="M1328.95 861.979L1318.09 870.423V761.105L1328.95 861.979Z" fill="url(#paint26_linear_44_4012)"/>
<path style="mix-blend-mode:multiply" opacity="0.1" d="M637.908 1034.78C649.367 1042.16 654.946 1049.85 668.064 1046.84C669.421 1067.65 669.572 1065.84 670.024 1086.65C652.131 1087.05 634.289 1087.45 616.496 1087.85C623.633 1070.16 630.77 1052.47 637.908 1034.78ZM659.168 981.7C661.882 974.965 664.596 968.281 667.31 961.646C668.064 1003.41 667.31 1034.02 668.064 1046.84C654.946 1049.85 649.367 1042.16 637.908 1034.78C645.045 1017.08 652.131 999.392 659.168 981.7ZM668.064 1046.84C680.881 1052.12 692.642 1039.6 699.879 1033.42C707.72 1050.81 715.611 1068.2 723.552 1085.59C705.659 1085.99 687.817 1086.34 670.024 1086.65C669.572 1065.84 669.421 1067.65 668.064 1046.84ZM667.31 961.646C670.225 968.18 673.191 974.714 676.206 981.248C684.047 998.638 691.938 1016.03 699.879 1033.42C692.642 1039.6 680.881 1052.12 668.064 1046.84C667.31 1034.02 668.064 1003.41 667.31 961.646Z" fill="url(#paint27_linear_44_4012)"/>
<path d="M622.528 898.619L611.672 999.493H577.595L622.528 898.619Z" fill="url(#paint28_linear_44_4012)"/>
<path d="M667.31 999.493H633.384L622.528 898.619L667.31 999.493Z" fill="url(#paint29_linear_44_4012)"/>
<path d="M622.528 898.619V1007.94L611.672 999.493L622.528 898.619Z" fill="#BCBEC0"/>
<path d="M633.384 999.493L622.528 1007.94V898.619L633.384 999.493Z" fill="url(#paint30_linear_44_4012)"/>
<path d="M478.681 1031.46L467.825 1132.33H433.899L478.681 1031.46Z" fill="url(#paint31_linear_44_4012)"/>
<path d="M523.464 1132.33H489.538L478.681 1031.46L523.464 1132.33Z" fill="url(#paint32_linear_44_4012)"/>
<path d="M478.681 1031.46V1140.78L467.825 1132.33L478.681 1031.46Z" fill="#BCBEC0"/>
<path d="M489.538 1132.33L478.681 1140.78V1031.46L489.538 1132.33Z" fill="url(#paint33_linear_44_4012)"/>
<path style="mix-blend-mode:multiply" opacity="0.1" d="M919.569 782.365C931.029 789.904 936.608 797.444 949.726 794.428C951.083 815.236 951.234 813.577 951.686 834.385C933.793 834.787 915.951 835.139 898.158 835.441C905.295 817.749 912.432 800.057 919.569 782.365ZM940.83 729.29C943.544 722.655 946.258 715.971 948.972 709.236C949.726 751.153 948.972 781.611 949.726 794.428C936.608 797.444 931.029 789.904 919.569 782.365C926.706 764.673 933.793 746.982 940.83 729.29ZM949.726 794.428C962.542 799.705 974.304 787.341 981.541 781.008C989.382 798.399 997.273 815.789 1005.21 833.179C987.321 833.581 969.478 833.983 951.686 834.385C951.234 813.577 951.083 815.236 949.726 794.428ZM948.972 709.236C951.887 715.77 954.853 722.303 957.868 728.837C965.709 746.228 973.6 763.618 981.541 781.008C974.304 787.341 962.542 799.705 949.726 794.428C948.972 781.611 949.726 751.153 948.972 709.236Z" fill="url(#paint34_linear_44_4012)"/>
<path d="M904.19 646.208L893.333 747.082H859.256L904.19 646.208Z" fill="url(#paint35_linear_44_4012)"/>
<path d="M948.972 747.082H915.046L904.19 646.208L948.972 747.082Z" fill="url(#paint36_linear_44_4012)"/>
<path d="M904.19 646.208V755.526L893.334 747.082L904.19 646.208Z" fill="#BCBEC0"/>
<path d="M915.046 747.082L904.19 755.526V646.208L915.046 747.082Z" fill="url(#paint37_linear_44_4012)"/>
<path style="mix-blend-mode:multiply" opacity="0.1" d="M914.594 1031.16C926.053 1038.55 931.632 1046.08 944.75 1043.22C946.107 1064.03 946.258 1062.22 946.71 1083.03C928.818 1083.43 910.975 1083.83 893.183 1084.23C900.32 1066.54 907.457 1048.85 914.594 1031.16ZM935.854 978.081C938.568 971.346 941.282 964.662 943.996 958.027C944.75 999.794 943.996 1030.4 944.75 1043.22C931.632 1046.08 926.053 1038.55 914.594 1031.16C921.731 1013.47 928.818 995.773 935.854 978.081ZM944.75 1043.22C957.567 1048.5 969.328 1035.98 976.566 1029.8C984.406 1047.19 992.297 1064.58 1000.24 1081.97C982.346 1082.37 964.503 1082.72 946.71 1083.03C946.258 1062.22 946.107 1064.03 944.75 1043.22ZM943.996 958.027C946.912 964.561 949.877 971.095 952.893 977.629C960.733 995.019 968.624 1012.41 976.566 1029.8C969.328 1035.98 957.567 1048.5 944.75 1043.22C943.996 1030.4 944.75 999.794 943.996 958.027Z" fill="url(#paint38_linear_44_4012)"/>
<path d="M901.929 903.444L891.072 1004.32H857.146L901.929 903.444Z" fill="url(#paint39_linear_44_4012)"/>
<path d="M946.711 1004.32H912.785L901.929 903.293L946.711 1004.32Z" fill="url(#paint40_linear_44_4012)"/>
<path d="M901.928 903.444V1012.76L891.072 1004.32L901.928 903.444Z" fill="#BCBEC0"/>
<path d="M912.785 1004.32L901.929 1012.76V903.293L912.785 1004.32Z" fill="url(#paint41_linear_44_4012)"/>
<path style="mix-blend-mode:multiply" opacity="0.1" d="M796.079 649.073C807.689 656.612 813.268 664.152 826.386 661.136C827.743 681.944 827.894 680.285 828.346 701.093C810.454 701.495 792.611 701.898 774.819 702.3C781.855 684.507 788.942 666.765 796.079 649.073ZM817.49 595.998C820.204 589.363 822.918 582.679 825.632 575.944C826.235 617.861 825.632 648.319 826.386 661.136C813.268 664.152 807.689 656.612 796.079 649.073C803.216 631.381 810.353 613.69 817.49 595.998ZM826.386 661.136C839.203 666.413 850.964 654.049 858.201 647.716C866.042 665.107 873.933 682.497 881.874 699.887C863.981 700.289 846.139 700.691 828.346 701.093C827.894 680.285 827.743 681.944 826.386 661.136ZM825.632 575.944C828.547 582.578 831.513 589.162 834.529 595.696C842.369 612.986 850.26 630.326 858.201 647.716C850.964 654.049 839.203 666.413 826.386 661.136C825.632 648.319 826.235 617.861 825.632 575.944Z" fill="url(#paint42_linear_44_4012)"/>
<path d="M783.564 521.36L772.708 622.234H738.631L783.564 521.36Z" fill="url(#paint43_linear_44_4012)"/>
<path d="M828.346 622.234H794.42L783.564 521.36L828.346 622.234Z" fill="url(#paint44_linear_44_4012)"/>
<path d="M783.564 521.36V630.678L772.708 622.234L783.564 521.36Z" fill="#BCBEC0"/>
<path d="M794.42 622.234L783.564 630.678V521.36L794.42 622.234Z" fill="url(#paint45_linear_44_4012)"/>
<path style="mix-blend-mode:multiply" opacity="0.1" d="M801.055 890.627C812.514 898.016 818.093 905.555 831.211 902.539C832.568 923.347 832.719 921.689 833.171 942.497C815.278 942.899 797.436 943.301 779.643 943.703C786.781 926.011 793.918 908.319 801.055 890.627ZM822.315 837.401C825.029 830.767 827.743 824.132 830.457 817.498C831.211 859.265 830.457 889.723 831.211 902.539C818.093 905.555 812.514 898.016 801.055 890.627C808.192 872.835 815.278 855.093 822.315 837.401ZM831.211 902.539C844.028 907.817 855.789 895.452 863.026 889.27C870.867 906.56 878.758 923.9 886.699 941.29C868.806 941.693 850.964 942.095 833.171 942.497C832.719 921.689 832.568 923.347 831.211 902.539ZM830.457 817.498C833.372 824.032 836.338 830.566 839.354 837.099C847.194 854.49 855.085 871.88 863.026 889.27C855.789 895.452 844.028 907.817 831.211 902.539C830.457 889.723 831.211 859.265 830.457 817.498Z" fill="url(#paint46_linear_44_4012)"/>
<path d="M788.389 762.763L777.533 863.637H743.456L788.389 762.763Z" fill="url(#paint47_linear_44_4012)"/>
<path d="M833.171 863.637H799.245L788.388 762.763L833.171 863.637Z" fill="url(#paint48_linear_44_4012)"/>
<path d="M788.389 762.763V872.081L777.533 863.637L788.389 762.763Z" fill="#BCBEC0"/>
<path d="M799.245 863.637L788.388 872.081V762.763L799.245 863.637Z" fill="url(#paint49_linear_44_4012)"/>
<path style="mix-blend-mode:multiply" opacity="0.1" d="M1477.32 1012.46C1488.78 1020 1494.35 1027.54 1507.62 1024.52C1508.83 1045.33 1508.98 1043.67 1509.43 1064.48C1491.64 1064.88 1473.8 1065.28 1455.9 1065.69C1463.04 1047.99 1470.18 1030.25 1477.32 1012.46ZM1498.73 959.385C1501.34 952.75 1504 946.116 1506.72 939.481C1507.47 981.248 1506.72 1011.71 1507.62 1024.52C1494.35 1027.54 1488.78 1020 1477.32 1012.46C1484.45 994.768 1491.59 977.077 1498.73 959.385ZM1507.62 1024.52C1520.29 1029.8 1532.2 1017.44 1539.29 1011.1C1547.23 1028.49 1555.12 1045.88 1562.96 1063.27C1545.17 1063.68 1527.33 1064.08 1509.43 1064.48C1508.98 1043.67 1508.83 1045.33 1507.62 1024.52ZM1506.72 939.481C1509.73 946.015 1512.7 952.549 1515.61 959.083C1523.56 976.473 1531.45 993.813 1539.29 1011.1C1532.2 1017.44 1520.29 1029.8 1507.62 1024.52C1506.72 1011.71 1507.47 981.248 1506.72 939.481Z" fill="url(#paint50_linear_44_4012)"/>
<path d="M1464.65 884.747L1453.79 985.621H1419.87L1464.65 884.747Z" fill="url(#paint51_linear_44_4012)"/>
<path d="M1509.43 985.621H1475.51L1464.65 884.747L1509.43 985.621Z" fill="url(#paint52_linear_44_4012)"/>
<path d="M1464.65 884.747V994.065L1453.79 985.621L1464.65 884.747Z" fill="#BCBEC0"/>
<path d="M1475.51 985.621L1464.65 994.065V884.747L1475.51 985.621Z" fill="url(#paint53_linear_44_4012)"/>
<path d="M783.866 1032.66L773.009 1133.54H739.083L783.866 1032.66Z" fill="url(#paint54_linear_44_4012)"/>
<path d="M828.648 1133.54H794.722L783.866 1032.66L828.648 1133.54Z" fill="url(#paint55_linear_44_4012)"/>
<path d="M783.865 1032.66V1141.98L773.009 1133.54L783.865 1032.66Z" fill="#BCBEC0"/>
<path d="M794.722 1133.54L783.866 1141.98V1032.66L794.722 1133.54Z" fill="url(#paint56_linear_44_4012)"/>
<path style="mix-blend-mode:multiply" opacity="0.1" d="M1040.2 651.637C1051.81 659.176 1057.39 666.715 1070.5 663.699C1071.86 684.507 1072.01 682.849 1072.46 703.657C1054.57 704.059 1036.73 704.461 1018.94 704.863C1026.07 687.07 1033.16 669.328 1040.2 651.637ZM1061.61 598.561C1064.32 591.926 1067.04 585.242 1069.75 578.507C1070.35 620.424 1069.75 650.883 1070.5 663.699C1057.39 666.715 1051.81 659.176 1040.2 651.637C1047.33 633.945 1054.47 616.253 1061.61 598.561ZM1070.5 663.699C1083.32 668.977 1095.08 656.612 1102.32 650.28C1110.16 667.67 1118.05 685.06 1125.99 702.45C1108.1 702.852 1090.26 703.255 1072.46 703.657C1072.01 682.849 1071.86 684.507 1070.5 663.699ZM1069.75 578.507C1072.67 585.141 1075.63 591.726 1078.65 598.259C1086.49 615.549 1094.38 632.889 1102.32 650.28C1095.08 656.612 1083.32 668.977 1070.5 663.699C1069.75 650.883 1070.35 620.424 1069.75 578.507Z" fill="url(#paint57_linear_44_4012)"/>
<path d="M1027.98 523.924L1017.13 624.797H983.201L1027.98 523.924Z" fill="url(#paint58_linear_44_4012)"/>
<path d="M1072.92 624.797H1038.84L1027.98 523.924L1072.92 624.797Z" fill="url(#paint59_linear_44_4012)"/>
<path d="M1027.98 523.924V633.241L1017.13 624.797L1027.98 523.924Z" fill="#BCBEC0"/>
<path d="M1038.84 624.797L1027.98 633.241V523.924L1038.84 624.797Z" fill="url(#paint60_linear_44_4012)"/>
<path style="mix-blend-mode:multiply" opacity="0.1" d="M267.736 1198.22C249.843 1197.82 232 1197.47 214.208 1197.17C214.66 1176.21 214.66 1178.02 216.017 1157.21C229.135 1160.23 234.865 1152.54 246.324 1145.15C253.462 1162.84 260.599 1180.53 267.736 1198.22ZM246.324 1145.15C234.865 1152.54 229.135 1160.23 216.017 1157.21C216.922 1144.39 216.168 1113.79 216.922 1072.02C219.535 1078.65 222.199 1085.34 224.913 1092.07C232.05 1109.77 239.187 1127.46 246.324 1145.15ZM214.208 1197.17C196.315 1196.77 178.472 1196.36 160.68 1195.96C168.521 1178.57 176.412 1161.18 184.353 1143.79C191.44 1149.97 203.351 1162.49 216.017 1157.21C214.66 1178.02 214.66 1176.21 214.208 1197.17ZM216.017 1157.21C203.351 1162.49 191.44 1149.97 184.353 1143.79C192.193 1126.4 200.084 1109.01 208.026 1091.62C210.941 1085.09 213.906 1078.55 216.922 1072.02C216.168 1113.79 216.922 1144.39 216.017 1157.21Z" fill="url(#paint61_linear_44_4012)"/>
<path d="M169.275 1027.99L158.418 1128.86H124.492L169.275 1027.99Z" fill="url(#paint62_linear_44_4012)"/>
<path d="M214.208 1128.86H180.131L169.275 1027.99L214.208 1128.86Z" fill="url(#paint63_linear_44_4012)"/>
<path d="M169.274 1027.99V1137.31L158.418 1128.86L169.274 1027.99Z" fill="#BCBEC0"/>
<path d="M180.131 1128.86L169.275 1137.31V1027.99L180.131 1128.86Z" fill="url(#paint64_linear_44_4012)"/>
<path style="mix-blend-mode:multiply" opacity="0.1" d="M1288.38 1062.07C1270.59 1061.67 1252.75 1061.31 1234.86 1061.01C1235.31 1040.05 1235.46 1041.86 1236.82 1021.05C1249.93 1024.07 1255.51 1016.38 1266.97 1008.99C1274.11 1026.68 1281.25 1044.38 1288.38 1062.07ZM1266.97 1008.99C1255.51 1016.38 1249.93 1024.07 1236.82 1021.05C1237.57 1008.24 1236.97 977.629 1237.57 935.862C1240.28 942.597 1243 949.282 1245.71 955.916C1252.85 973.608 1259.94 991.3 1266.97 1008.99ZM1234.86 1061.01C1217.06 1060.61 1199.22 1060.21 1181.33 1059.81C1189.27 1042.42 1197.16 1025.03 1205 1007.63C1212.24 1013.82 1224 1026.33 1236.82 1021.05C1235.46 1041.86 1235.31 1040.05 1234.86 1061.01ZM1236.82 1021.05C1224 1026.33 1212.24 1013.82 1205 1007.63C1212.94 990.245 1220.83 972.854 1228.67 955.464C1231.69 948.93 1234.66 942.396 1237.57 935.862C1236.97 977.629 1237.57 1008.24 1236.82 1021.05Z" fill="url(#paint65_linear_44_4012)"/>
<path d="M1190.07 891.834L1179.22 992.858H1145.29L1190.07 891.834Z" fill="url(#paint66_linear_44_4012)"/>
<path d="M1234.86 992.858H1200.93L1190.07 891.834L1234.86 992.858Z" fill="url(#paint67_linear_44_4012)"/>
<path d="M1190.07 891.834V1001.15L1179.22 992.858L1190.07 891.834Z" fill="#BCBEC0"/>
<path d="M1200.93 992.858L1190.07 1001.15V891.834L1200.93 992.858Z" fill="url(#paint68_linear_44_4012)"/>
<path style="mix-blend-mode:multiply" opacity="0.1" d="M722.647 820.966C704.855 820.564 687.012 820.162 669.119 819.76C669.572 798.951 669.722 800.61 671.079 779.802C684.197 782.818 689.776 775.279 701.236 767.89C708.373 785.582 715.51 803.274 722.647 820.966ZM701.236 767.89C689.776 775.279 684.197 782.818 671.079 779.802C671.833 766.986 671.079 736.527 671.833 694.761C674.547 701.395 677.211 708.029 679.825 714.664C686.962 732.356 694.099 750.098 701.236 767.89ZM669.119 819.76C651.226 819.357 633.384 818.955 615.591 818.553C623.432 801.264 631.323 783.923 639.264 766.533C646.502 772.715 658.263 785.079 671.079 779.802C669.722 800.61 669.572 798.951 669.119 819.76ZM671.079 779.802C658.263 785.079 646.502 772.715 639.264 766.533C647.105 749.143 654.996 731.753 662.937 714.362C665.953 707.828 668.918 701.295 671.833 694.761C671.079 736.527 671.833 766.986 671.079 779.802Z" fill="url(#paint69_linear_44_4012)"/>
<path d="M624.337 650.732L613.481 751.605H579.555L624.337 650.732Z" fill="url(#paint70_linear_44_4012)"/>
<path d="M669.12 751.605H635.194L624.337 650.732L669.12 751.605Z" fill="url(#paint71_linear_44_4012)"/>
<path d="M624.337 650.732V760.049L613.481 751.605L624.337 650.732Z" fill="#BCBEC0"/>
<path d="M635.194 751.605L624.337 760.049V650.732L635.194 751.605Z" fill="url(#paint72_linear_44_4012)"/>
<path style="mix-blend-mode:multiply" opacity="0.1" d="M1279.49 822.323C1261.7 821.921 1243.85 821.519 1225.96 821.117C1226.41 800.308 1226.56 802.118 1227.92 781.31C1241.04 784.325 1246.62 776.636 1258.08 769.247C1265.21 786.939 1272.35 804.631 1279.49 822.323ZM1258.08 769.247C1246.62 776.636 1241.04 784.325 1227.92 781.31C1228.67 768.493 1227.92 737.884 1228.67 696.118C1231.39 702.752 1234.05 709.437 1236.67 716.172C1243.8 733.863 1250.94 751.555 1258.08 769.247ZM1225.96 821.117C1208.17 820.815 1190.33 820.463 1172.43 820.061C1180.37 802.671 1188.27 785.28 1196.11 767.89C1203.34 774.072 1215.1 786.587 1227.92 781.31C1226.56 802.118 1226.41 800.308 1225.96 821.117ZM1227.92 781.31C1215.1 786.587 1203.34 774.072 1196.11 767.89C1204.05 750.5 1211.94 733.11 1219.78 715.719C1222.79 709.185 1225.76 702.651 1228.67 696.118C1227.92 737.884 1228.67 768.493 1227.92 781.31Z" fill="url(#paint73_linear_44_4012)"/>
<path d="M1181.18 652.089L1170.32 752.963H1136.4L1181.18 652.089Z" fill="url(#paint74_linear_44_4012)"/>
<path d="M1225.96 752.963H1192.03L1181.18 652.089L1225.96 752.963Z" fill="url(#paint75_linear_44_4012)"/>
<path d="M1181.18 652.089V761.407L1170.32 752.963L1181.18 652.089Z" fill="#BCBEC0"/>
<path d="M1192.03 752.963L1181.18 761.407V652.089L1192.03 752.963Z" fill="url(#paint76_linear_44_4012)"/>
<path style="mix-blend-mode:multiply" opacity="0.1" d="M1127.5 927.72C1109.71 927.318 1091.86 926.915 1073.97 926.513C1074.42 905.705 1074.57 907.364 1075.93 886.556C1089.05 889.572 1094.63 882.032 1106.24 874.644C1113.28 892.336 1120.36 910.028 1127.5 927.72ZM1106.24 874.644C1094.63 882.032 1089.05 889.572 1075.93 886.556C1076.69 873.739 1076.08 843.281 1076.69 801.514C1079.4 808.149 1082.11 814.783 1084.83 821.418C1091.96 839.21 1099.1 856.952 1106.24 874.644ZM1073.97 926.513C1056.18 926.111 1038.34 925.76 1020.44 925.458C1028.38 908.068 1036.28 890.677 1044.12 873.287C1051.35 879.469 1063.11 891.833 1075.93 886.556C1074.57 907.364 1074.42 905.705 1073.97 926.513ZM1075.93 886.556C1063.11 891.833 1051.35 879.469 1044.12 873.287C1052.06 855.897 1059.95 838.506 1067.79 821.116C1070.8 814.582 1073.77 808.048 1076.69 801.514C1076.08 843.281 1076.69 873.739 1075.93 886.556Z" fill="url(#paint77_linear_44_4012)"/>
<path d="M1029.19 757.486L1018.33 858.36H984.407L1029.19 757.486Z" fill="url(#paint78_linear_44_4012)"/>
<path d="M1073.97 858.36H1040.05L1029.19 757.486L1073.97 858.36Z" fill="url(#paint79_linear_44_4012)"/>
<path d="M1029.19 757.486V866.803L1018.33 858.36L1029.19 757.486Z" fill="#BCBEC0"/>
<path d="M1040.05 858.36L1029.19 866.803V757.486L1040.05 858.36Z" fill="url(#paint80_linear_44_4012)"/>
<path style="mix-blend-mode:multiply" opacity="0.1" d="M993.605 606.703C978.225 605.296 962.845 603.889 947.465 602.481C949.426 581.824 949.426 583.483 951.989 562.825C963.147 566.444 968.575 559.207 978.979 552.572C983.905 570.566 988.78 588.609 993.605 606.703ZM978.979 552.572C968.575 559.207 963.147 566.444 951.989 562.825C953.648 550.009 955.155 519.551 958.774 477.935C960.684 484.77 962.544 491.555 964.353 498.29C969.178 516.384 974.054 534.478 978.979 552.572ZM947.465 602.481C932.086 601.074 916.756 599.717 901.477 598.41C909.518 581.523 917.56 564.585 925.602 547.596C931.332 554.231 940.68 567.349 951.989 562.825C949.426 583.483 949.426 581.824 947.465 602.481ZM951.989 562.825C940.68 567.349 931.332 554.231 925.602 547.596C933.644 530.709 941.685 513.821 949.727 496.933C952.743 490.6 955.758 484.268 958.774 477.935C955.155 519.551 953.648 550.009 951.989 562.825Z" fill="url(#paint81_linear_44_4012)"/>
<path d="M904.341 420.939L893.033 521.813L859.107 521.662L904.341 420.939Z" fill="#F06F6B"/>
<path d="M948.671 522.114L914.745 521.963L904.341 420.939L948.671 522.114Z" fill="#DE4945"/>
<path d="M904.341 420.939L903.889 530.256L893.032 521.812L904.341 420.939Z" fill="#581110"/>
<path d="M914.746 521.963L903.889 530.256L904.342 420.939L914.746 521.963Z" fill="#AF211F"/>
<path style="mix-blend-mode:multiply" opacity="0.2" d="M1489.95 1251.89C1435.07 1251.89 1390.74 1209.07 1390.74 1155.99C1390.74 1102.92 1435.07 1060.09 1489.95 1060.09C1544.69 1060.09 1589.02 1102.92 1589.02 1155.99C1589.02 1209.07 1544.69 1251.89 1489.95 1251.89Z" fill="url(#paint82_radial_44_4012)"/>
<path style="mix-blend-mode:multiply" opacity="0.2" d="M1405.51 1179.36C1350.63 1179.36 1306.3 1136.54 1306.3 1083.62C1306.3 1030.54 1350.63 987.717 1405.51 987.717C1460.4 987.717 1504.73 1030.54 1504.73 1083.62C1504.73 1136.54 1460.4 1179.36 1405.51 1179.36Z" fill="url(#paint83_radial_44_4012)"/>
<path style="mix-blend-mode:multiply" opacity="0.2" d="M1277.2 1214.95C1222.31 1214.95 1177.98 1172.12 1177.98 1119.05C1177.98 1066.12 1222.31 1023.3 1277.2 1023.3C1332.08 1023.3 1376.41 1066.12 1376.41 1119.05C1376.41 1172.12 1332.08 1214.95 1277.2 1214.95Z" fill="url(#paint84_radial_44_4012)"/>
<path style="mix-blend-mode:multiply" opacity="0.2" d="M1144.21 1183.28C1089.32 1183.28 1044.99 1140.46 1044.99 1087.38C1044.99 1034.46 1089.32 991.638 1144.21 991.638C1199.09 991.638 1243.42 1034.46 1243.42 1087.38C1243.42 1140.46 1199.09 1183.28 1144.21 1183.28Z" fill="url(#paint85_radial_44_4012)"/>
<path style="mix-blend-mode:multiply" opacity="0.2" d="M813.992 1252.49C759.107 1252.49 714.777 1209.52 714.777 1156.59C714.777 1103.52 759.107 1060.7 813.992 1060.7C868.877 1060.7 913.207 1103.52 913.207 1156.59C913.207 1209.52 868.877 1252.49 813.992 1252.49Z" fill="url(#paint86_radial_44_4012)"/>
<path style="mix-blend-mode:multiply" opacity="0.2" d="M296.355 1388.65C205.131 1388.65 131.549 1317.48 131.549 1229.42C131.549 1141.36 205.131 1070.2 296.355 1070.2C387.428 1070.2 461.161 1141.36 461.161 1229.42C461.161 1317.48 387.428 1388.65 296.355 1388.65Z" fill="url(#paint87_radial_44_4012)"/>
<path d="M1901.29 1293.05C1910.64 1308.88 1916.22 1327.43 1916.22 1347.49C1916.22 1404.48 1871.43 1450.77 1816.1 1450.77C1795.89 1450.77 1777.19 1444.74 1761.66 1434.19C1741.76 1462.38 1709.64 1480.78 1673.15 1480.78C1655.36 1480.78 1638.62 1476.4 1623.85 1468.71C1609.22 1475.65 1593.09 1479.57 1576.05 1479.57C1540.62 1479.57 1509.1 1462.83 1488.14 1436.75C1471.86 1445.64 1453.16 1450.77 1433.41 1450.77C1393.3 1450.77 1357.87 1429.81 1336.76 1397.85C1325.75 1400.86 1313.84 1402.67 1301.78 1402.67C1282.17 1402.67 1263.63 1398.15 1246.74 1390.16C1222.76 1406.14 1194.27 1415.64 1163.66 1415.64C1146.92 1415.64 1130.94 1412.92 1115.86 1407.65C1097.16 1421.67 1074.39 1429.66 1049.52 1429.66C1021.92 1429.66 996.591 1419.56 976.838 1402.52C954.824 1431.92 920.445 1450.77 881.694 1450.77C854.704 1450.77 829.674 1441.42 809.62 1425.74C788.812 1450.17 758.354 1465.85 724.277 1465.85C686.581 1465.85 653.107 1446.55 632.45 1417.15C625.665 1419.41 618.427 1420.77 610.888 1420.77C593.548 1420.77 577.565 1413.98 565.502 1402.97C556.154 1409.31 544.996 1412.92 532.933 1412.92C511.221 1412.92 492.373 1400.86 481.818 1383.07C469.755 1401.01 449.55 1412.92 426.631 1412.92C414.116 1412.92 402.355 1409.31 392.253 1402.97C382.15 1421.52 363.001 1433.88 341.137 1433.88C308.87 1433.88 282.634 1406.74 282.634 1373.42C282.634 1371.91 282.684 1370.45 282.785 1369.05C282.785 1369.05 282.734 1369.05 282.634 1369.05C215.837 1369.05 161.857 1313.11 161.857 1244.2C161.857 1175.29 215.837 1119.5 282.634 1119.5C346.415 1119.5 398.586 1170.47 403.109 1235.15C410.347 1232.29 418.489 1230.78 426.631 1230.78C450.003 1230.78 470.66 1243.14 482.572 1261.69C494.634 1240.73 516.8 1226.56 542.131 1226.56C553.138 1226.56 563.391 1229.12 572.438 1233.79C572.237 1231.08 572.137 1228.32 572.137 1225.5C572.137 1178.16 609.38 1139.71 655.218 1139.71C681.002 1139.71 704.072 1151.92 719.301 1171.07C727.443 1129.45 762.726 1098.24 805.398 1098.24C833.896 1098.24 859.378 1112.41 875.361 1134.28C887.424 1126.59 901.748 1122.22 916.977 1122.22C939.595 1122.22 959.95 1132.02 974.425 1147.7C987.694 1132.17 1007.15 1122.37 1028.71 1122.37C1032.43 1122.37 1036 1122.67 1039.41 1123.27C1037.15 1115.73 1035.79 1107.59 1035.79 1099.3C1035.79 1056.17 1069.72 1021.19 1111.49 1021.19C1148.88 1021.19 1179.94 1049.39 1185.97 1086.18C1187.38 1086.08 1188.84 1086.03 1190.35 1086.03C1204.67 1086.03 1217.19 1092.81 1225.33 1103.67C1239.65 1088.29 1259.71 1078.64 1282.02 1078.64C1293.63 1078.64 1304.49 1081.35 1314.44 1085.88C1324.24 1050.59 1355.6 1024.96 1393 1024.96C1438.23 1024.96 1474.72 1062.66 1474.72 1109.4C1474.72 1117.39 1473.67 1125.23 1471.56 1132.62C1485.28 1141.21 1495.83 1154.48 1501.71 1170.16C1514.68 1158.71 1531.72 1151.92 1550.42 1151.92C1586.6 1151.92 1617.06 1178.31 1624.15 1213.74C1633.8 1206.8 1645.26 1202.73 1657.62 1202.73C1669.53 1202.73 1680.69 1206.35 1689.89 1212.69C1692 1170.01 1726.23 1136.09 1768.15 1136.09C1798.91 1136.09 1825.75 1154.48 1838.41 1181.32C1841.93 1180.72 1845.6 1180.42 1849.42 1180.42C1886.21 1180.42 1916.22 1211.33 1916.22 1249.33C1916.22 1265.91 1910.64 1280.99 1901.29 1293.05Z" fill="white"/>
</g>
<defs>
<radialGradient id="paint0_radial_44_4012" cx="0" cy="0" r="1" gradientUnits="userSpaceOnUse" gradientTransform="translate(1391.47 1153.25) scale(105.548 105.548)">
<stop stop-color="#231F20"/>
<stop offset="1" stop-color="#F1F2F2"/>
</radialGradient>
<radialGradient id="paint1_radial_44_4012" cx="0" cy="0" r="1" gradientUnits="userSpaceOnUse" gradientTransform="translate(1243.1 1102.13) scale(105.548 105.548)">
<stop stop-color="#231F20"/>
<stop offset="1" stop-color="#F1F2F2"/>
</radialGradient>
<radialGradient id="paint2_radial_44_4012" cx="0" cy="0" r="1" gradientUnits="userSpaceOnUse" gradientTransform="translate(1069.85 1109.07) scale(105.548 105.548)">
<stop stop-color="#231F20"/>
<stop offset="1" stop-color="#F1F2F2"/>
</radialGradient>
<radialGradient id="paint3_radial_44_4012" cx="0" cy="0" r="1" gradientUnits="userSpaceOnUse" gradientTransform="translate(920.421 1017.24) scale(105.548 105.548)">
<stop stop-color="#231F20"/>
<stop offset="1" stop-color="#F1F2F2"/>
</radialGradient>
<radialGradient id="paint4_radial_44_4012" cx="0" cy="0" r="1" gradientUnits="userSpaceOnUse" gradientTransform="translate(776.724 1056.29) scale(105.548 105.548)">
<stop stop-color="#231F20"/>
<stop offset="1" stop-color="#F1F2F2"/>
</radialGradient>
<radialGradient id="paint5_radial_44_4012" cx="0" cy="0" r="1" gradientUnits="userSpaceOnUse" gradientTransform="translate(653.384 1000.96) scale(105.548 105.548)">
<stop stop-color="#231F20"/>
<stop offset="1" stop-color="#F1F2F2"/>
</radialGradient>
<radialGradient id="paint6_radial_44_4012" cx="0" cy="0" r="1" gradientUnits="userSpaceOnUse" gradientTransform="translate(556.431 1098.96) scale(82.7798 82.7798)">
<stop stop-color="#231F20"/>
<stop offset="1" stop-color="#F1F2F2"/>
</radialGradient>
<radialGradient id="paint7_radial_44_4012" cx="0" cy="0" r="1" gradientUnits="userSpaceOnUse" gradientTransform="translate(475.31 1116.46) scale(82.7798 82.7798)">
<stop stop-color="#231F20"/>
<stop offset="1" stop-color="#F1F2F2"/>
</radialGradient>
<linearGradient id="paint8_linear_44_4012" x1="312.368" y1="1084.53" x2="363.935" y2="1043.37" gradientUnits="userSpaceOnUse">
<stop stop-color="white"/>
<stop offset="1" stop-color="#231F20"/>
</linearGradient>
<linearGradient id="paint9_linear_44_4012" x1="273.315" y1="900.881" x2="310.86" y2="901.635" gradientUnits="userSpaceOnUse">
<stop stop-color="#E6E7E8"/>
<stop offset="1" stop-color="white"/>
</linearGradient>
<linearGradient id="paint10_linear_44_4012" x1="388.815" y1="1012.76" x2="344.183" y2="1018.04" gradientUnits="userSpaceOnUse">
<stop stop-color="#D1D3D4"/>
<stop offset="1" stop-color="#F1F2F2"/>
</linearGradient>
<linearGradient id="paint11_linear_44_4012" x1="328.351" y1="1013.36" x2="317.645" y2="1013.36" gradientUnits="userSpaceOnUse">
<stop stop-color="#E6E7E8"/>
<stop offset="1" stop-color="#BCBEC0"/>
</linearGradient>
<linearGradient id="paint12_linear_44_4012" x1="467.523" y1="966.019" x2="519.091" y2="925.006" gradientUnits="userSpaceOnUse">
<stop stop-color="white"/>
<stop offset="1" stop-color="#231F20"/>
</linearGradient>
<linearGradient id="paint13_linear_44_4012" x1="425.756" y1="773.921" x2="463.301" y2="774.675" gradientUnits="userSpaceOnUse">
<stop stop-color="#E6E7E8"/>
<stop offset="1" stop-color="white"/>
</linearGradient>
<linearGradient id="paint14_linear_44_4012" x1="541.256" y1="885.802" x2="496.624" y2="891.08" gradientUnits="userSpaceOnUse">
<stop stop-color="#D1D3D4"/>
<stop offset="1" stop-color="#F1F2F2"/>
</linearGradient>
<linearGradient id="paint15_linear_44_4012" x1="480.792" y1="886.405" x2="470.237" y2="886.405" gradientUnits="userSpaceOnUse">
<stop stop-color="#E6E7E8"/>
<stop offset="1" stop-color="#BCBEC0"/>
</linearGradient>
<linearGradient id="paint16_linear_44_4012" x1="1409.61" y1="1205.91" x2="1358.05" y2="1164.9" gradientUnits="userSpaceOnUse">
<stop stop-color="white"/>
<stop offset="1" stop-color="#231F20"/>
</linearGradient>
<linearGradient id="paint17_linear_44_4012" x1="1273.31" y1="1025.58" x2="1311" y2="1026.33" gradientUnits="userSpaceOnUse">
<stop stop-color="#E6E7E8"/>
<stop offset="1" stop-color="white"/>
</linearGradient>
<linearGradient id="paint18_linear_44_4012" x1="1388.96" y1="1137.46" x2="1344.17" y2="1142.74" gradientUnits="userSpaceOnUse">
<stop stop-color="#D1D3D4"/>
<stop offset="1" stop-color="#F1F2F2"/>
</linearGradient>
<linearGradient id="paint19_linear_44_4012" x1="1328.34" y1="1138.06" x2="1317.79" y2="1138.06" gradientUnits="userSpaceOnUse">
<stop stop-color="#E6E7E8"/>
<stop offset="1" stop-color="#BCBEC0"/>
</linearGradient>
<linearGradient id="paint20_linear_44_4012" x1="992.096" y1="1031.46" x2="1029.64" y2="1032.21" gradientUnits="userSpaceOnUse">
<stop stop-color="#E6E7E8"/>
<stop offset="1" stop-color="white"/>
</linearGradient>
<linearGradient id="paint21_linear_44_4012" x1="1107.6" y1="1143.34" x2="1062.96" y2="1148.77" gradientUnits="userSpaceOnUse">
<stop stop-color="#D1D3D4"/>
<stop offset="1" stop-color="#F1F2F2"/>
</linearGradient>
<linearGradient id="paint22_linear_44_4012" x1="1047.13" y1="1144.09" x2="1036.43" y2="1144.09" gradientUnits="userSpaceOnUse">
<stop stop-color="#E6E7E8"/>
<stop offset="1" stop-color="#BCBEC0"/>
</linearGradient>
<linearGradient id="paint23_linear_44_4012" x1="1406.6" y1="938.576" x2="1355.03" y2="897.563" gradientUnits="userSpaceOnUse">
<stop stop-color="white"/>
<stop offset="1" stop-color="#231F20"/>
</linearGradient>
<linearGradient id="paint24_linear_44_4012" x1="1270.44" y1="758.24" x2="1307.99" y2="758.994" gradientUnits="userSpaceOnUse">
<stop stop-color="#E6E7E8"/>
<stop offset="1" stop-color="white"/>
</linearGradient>
<linearGradient id="paint25_linear_44_4012" x1="1385.94" y1="870.121" x2="1341.31" y2="875.399" gradientUnits="userSpaceOnUse">
<stop stop-color="#D1D3D4"/>
<stop offset="1" stop-color="#F1F2F2"/>
</linearGradient>
<linearGradient id="paint26_linear_44_4012" x1="1325.48" y1="870.724" x2="1314.92" y2="870.724" gradientUnits="userSpaceOnUse">
<stop stop-color="#E6E7E8"/>
<stop offset="1" stop-color="#BCBEC0"/>
</linearGradient>
<linearGradient id="paint27_linear_44_4012" x1="616.496" y1="1087.85" x2="668.064" y2="1046.84" gradientUnits="userSpaceOnUse">
<stop stop-color="white"/>
<stop offset="1" stop-color="#231F20"/>
</linearGradient>
<linearGradient id="paint28_linear_44_4012" x1="574.73" y1="895.754" x2="612.275" y2="896.508" gradientUnits="userSpaceOnUse">
<stop stop-color="#E6E7E8"/>
<stop offset="1" stop-color="white"/>
</linearGradient>
<linearGradient id="paint29_linear_44_4012" x1="690.229" y1="1007.63" x2="645.597" y2="1012.91" gradientUnits="userSpaceOnUse">
<stop stop-color="#D1D3D4"/>
<stop offset="1" stop-color="#F1F2F2"/>
</linearGradient>
<linearGradient id="paint30_linear_44_4012" x1="629.765" y1="1008.24" x2="619.21" y2="1008.24" gradientUnits="userSpaceOnUse">
<stop stop-color="#E6E7E8"/>
<stop offset="1" stop-color="#BCBEC0"/>
</linearGradient>
<linearGradient id="paint31_linear_44_4012" x1="430.883" y1="1028.59" x2="468.428" y2="1029.35" gradientUnits="userSpaceOnUse">
<stop stop-color="#E6E7E8"/>
<stop offset="1" stop-color="white"/>
</linearGradient>
<linearGradient id="paint32_linear_44_4012" x1="546.534" y1="1140.47" x2="501.751" y2="1145.75" gradientUnits="userSpaceOnUse">
<stop stop-color="#D1D3D4"/>
<stop offset="1" stop-color="#F1F2F2"/>
</linearGradient>
<linearGradient id="paint33_linear_44_4012" x1="485.919" y1="1141.08" x2="475.364" y2="1141.08" gradientUnits="userSpaceOnUse">
<stop stop-color="#E6E7E8"/>
<stop offset="1" stop-color="#BCBEC0"/>
</linearGradient>
<linearGradient id="paint34_linear_44_4012" x1="898.158" y1="835.441" x2="949.726" y2="794.428" gradientUnits="userSpaceOnUse">
<stop stop-color="white"/>
<stop offset="1" stop-color="#231F20"/>
</linearGradient>
<linearGradient id="paint35_linear_44_4012" x1="856.392" y1="643.344" x2="893.937" y2="644.098" gradientUnits="userSpaceOnUse">
<stop stop-color="#E6E7E8"/>
<stop offset="1" stop-color="white"/>
</linearGradient>
<linearGradient id="paint36_linear_44_4012" x1="971.891" y1="755.224" x2="927.259" y2="760.653" gradientUnits="userSpaceOnUse">
<stop stop-color="#D1D3D4"/>
<stop offset="1" stop-color="#F1F2F2"/>
</linearGradient>
<linearGradient id="paint37_linear_44_4012" x1="911.427" y1="755.828" x2="900.872" y2="755.978" gradientUnits="userSpaceOnUse">
<stop stop-color="#E6E7E8"/>
<stop offset="1" stop-color="#BCBEC0"/>
</linearGradient>
<linearGradient id="paint38_linear_44_4012" x1="893.183" y1="1084.23" x2="944.75" y2="1043.22" gradientUnits="userSpaceOnUse">
<stop stop-color="white"/>
<stop offset="1" stop-color="#231F20"/>
</linearGradient>
<linearGradient id="paint39_linear_44_4012" x1="854.13" y1="900.579" x2="891.675" y2="901.333" gradientUnits="userSpaceOnUse">
<stop stop-color="#E6E7E8"/>
<stop offset="1" stop-color="white"/>
</linearGradient>
<linearGradient id="paint40_linear_44_4012" x1="969.63" y1="1012.46" x2="924.998" y2="1017.74" gradientUnits="userSpaceOnUse">
<stop stop-color="#D1D3D4"/>
<stop offset="1" stop-color="#F1F2F2"/>
</linearGradient>
<linearGradient id="paint41_linear_44_4012" x1="909.166" y1="1013.06" x2="898.611" y2="1013.06" gradientUnits="userSpaceOnUse">
<stop stop-color="#E6E7E8"/>
<stop offset="1" stop-color="#BCBEC0"/>
</linearGradient>
<linearGradient id="paint42_linear_44_4012" x1="774.819" y1="702.3" x2="826.386" y2="661.136" gradientUnits="userSpaceOnUse">
<stop stop-color="white"/>
<stop offset="1" stop-color="#231F20"/>
</linearGradient>
<linearGradient id="paint43_linear_44_4012" x1="735.766" y1="518.495" x2="773.311" y2="519.249" gradientUnits="userSpaceOnUse">
<stop stop-color="#E6E7E8"/>
<stop offset="1" stop-color="white"/>
</linearGradient>
<linearGradient id="paint44_linear_44_4012" x1="851.265" y1="630.376" x2="806.633" y2="635.804" gradientUnits="userSpaceOnUse">
<stop stop-color="#D1D3D4"/>
<stop offset="1" stop-color="#F1F2F2"/>
</linearGradient>
<linearGradient id="paint45_linear_44_4012" x1="790.801" y1="631.13" x2="780.246" y2="631.13" gradientUnits="userSpaceOnUse">
<stop stop-color="#E6E7E8"/>
<stop offset="1" stop-color="#BCBEC0"/>
</linearGradient>
<linearGradient id="paint46_linear_44_4012" x1="779.643" y1="943.703" x2="831.211" y2="902.539" gradientUnits="userSpaceOnUse">
<stop stop-color="white"/>
<stop offset="1" stop-color="#231F20"/>
</linearGradient>
<linearGradient id="paint47_linear_44_4012" x1="740.591" y1="760.049" x2="778.136" y2="760.803" gradientUnits="userSpaceOnUse">
<stop stop-color="#E6E7E8"/>
<stop offset="1" stop-color="white"/>
</linearGradient>
<linearGradient id="paint48_linear_44_4012" x1="856.09" y1="871.779" x2="811.458" y2="877.208" gradientUnits="userSpaceOnUse">
<stop stop-color="#D1D3D4"/>
<stop offset="1" stop-color="#F1F2F2"/>
</linearGradient>
<linearGradient id="paint49_linear_44_4012" x1="795.626" y1="872.533" x2="785.071" y2="872.533" gradientUnits="userSpaceOnUse">
<stop stop-color="#E6E7E8"/>
<stop offset="1" stop-color="#BCBEC0"/>
</linearGradient>
<linearGradient id="paint50_linear_44_4012" x1="1455.9" y1="1065.69" x2="1507.62" y2="1024.52" gradientUnits="userSpaceOnUse">
<stop stop-color="white"/>
<stop offset="1" stop-color="#231F20"/>
</linearGradient>
<linearGradient id="paint51_linear_44_4012" x1="1416.85" y1="882.033" x2="1454.4" y2="882.787" gradientUnits="userSpaceOnUse">
<stop stop-color="#E6E7E8"/>
<stop offset="1" stop-color="white"/>
</linearGradient>
<linearGradient id="paint52_linear_44_4012" x1="1532.35" y1="993.763" x2="1487.72" y2="999.191" gradientUnits="userSpaceOnUse">
<stop stop-color="#D1D3D4"/>
<stop offset="1" stop-color="#F1F2F2"/>
</linearGradient>
<linearGradient id="paint53_linear_44_4012" x1="1471.89" y1="994.517" x2="1461.33" y2="994.517" gradientUnits="userSpaceOnUse">
<stop stop-color="#E6E7E8"/>
<stop offset="1" stop-color="#BCBEC0"/>
</linearGradient>
<linearGradient id="paint54_linear_44_4012" x1="736.067" y1="1029.95" x2="773.612" y2="1030.55" gradientUnits="userSpaceOnUse">
<stop stop-color="#E6E7E8"/>
<stop offset="1" stop-color="white"/>
</linearGradient>
<linearGradient id="paint55_linear_44_4012" x1="851.718" y1="1141.68" x2="806.936" y2="1147.11" gradientUnits="userSpaceOnUse">
<stop stop-color="#D1D3D4"/>
<stop offset="1" stop-color="#F1F2F2"/>
</linearGradient>
<linearGradient id="paint56_linear_44_4012" x1="791.103" y1="1142.43" x2="780.549" y2="1142.43" gradientUnits="userSpaceOnUse">
<stop stop-color="#E6E7E8"/>
<stop offset="1" stop-color="#BCBEC0"/>
</linearGradient>
<linearGradient id="paint57_linear_44_4012" x1="1018.94" y1="704.863" x2="1070.5" y2="663.699" gradientUnits="userSpaceOnUse">
<stop stop-color="white"/>
<stop offset="1" stop-color="#231F20"/>
</linearGradient>
<linearGradient id="paint58_linear_44_4012" x1="980.336" y1="521.059" x2="1017.88" y2="521.813" gradientUnits="userSpaceOnUse">
<stop stop-color="#E6E7E8"/>
<stop offset="1" stop-color="white"/>
</linearGradient>
<linearGradient id="paint59_linear_44_4012" x1="1095.84" y1="632.94" x2="1051.2" y2="638.368" gradientUnits="userSpaceOnUse">
<stop stop-color="#D1D3D4"/>
<stop offset="1" stop-color="#F1F2F2"/>
</linearGradient>
<linearGradient id="paint60_linear_44_4012" x1="1035.37" y1="633.693" x2="1024.82" y2="633.693" gradientUnits="userSpaceOnUse">
<stop stop-color="#E6E7E8"/>
<stop offset="1" stop-color="#BCBEC0"/>
</linearGradient>
<linearGradient id="paint61_linear_44_4012" x1="267.736" y1="1198.22" x2="216.017" y2="1157.21" gradientUnits="userSpaceOnUse">
<stop stop-color="white"/>
<stop offset="1" stop-color="#231F20"/>
</linearGradient>
<linearGradient id="paint62_linear_44_4012" x1="121.627" y1="1025.28" x2="159.172" y2="1026.03" gradientUnits="userSpaceOnUse">
<stop stop-color="#E6E7E8"/>
<stop offset="1" stop-color="white"/>
</linearGradient>
<linearGradient id="paint63_linear_44_4012" x1="237.127" y1="1137.16" x2="192.495" y2="1142.43" gradientUnits="userSpaceOnUse">
<stop stop-color="#D1D3D4"/>
<stop offset="1" stop-color="#F1F2F2"/>
</linearGradient>
<linearGradient id="paint64_linear_44_4012" x1="176.663" y1="1137.76" x2="166.108" y2="1137.76" gradientUnits="userSpaceOnUse">
<stop stop-color="#E6E7E8"/>
<stop offset="1" stop-color="#BCBEC0"/>
</linearGradient>
<linearGradient id="paint65_linear_44_4012" x1="1288.38" y1="1062.07" x2="1236.82" y2="1021.05" gradientUnits="userSpaceOnUse">
<stop stop-color="white"/>
<stop offset="1" stop-color="#231F20"/>
</linearGradient>
<linearGradient id="paint66_linear_44_4012" x1="1142.28" y1="889.12" x2="1179.82" y2="889.874" gradientUnits="userSpaceOnUse">
<stop stop-color="#E6E7E8"/>
<stop offset="1" stop-color="white"/>
</linearGradient>
<linearGradient id="paint67_linear_44_4012" x1="1257.93" y1="1001" x2="1213.14" y2="1006.28" gradientUnits="userSpaceOnUse">
<stop stop-color="#D1D3D4"/>
<stop offset="1" stop-color="#F1F2F2"/>
</linearGradient>
<linearGradient id="paint68_linear_44_4012" x1="1197.31" y1="1001.6" x2="1186.76" y2="1001.6" gradientUnits="userSpaceOnUse">
<stop stop-color="#E6E7E8"/>
<stop offset="1" stop-color="#BCBEC0"/>
</linearGradient>
<linearGradient id="paint69_linear_44_4012" x1="722.647" y1="820.966" x2="671.079" y2="779.802" gradientUnits="userSpaceOnUse">
<stop stop-color="white"/>
<stop offset="1" stop-color="#231F20"/>
</linearGradient>
<linearGradient id="paint70_linear_44_4012" x1="576.539" y1="647.867" x2="614.084" y2="648.621" gradientUnits="userSpaceOnUse">
<stop stop-color="#E6E7E8"/>
<stop offset="1" stop-color="white"/>
</linearGradient>
<linearGradient id="paint71_linear_44_4012" x1="692.039" y1="759.748" x2="647.407" y2="765.176" gradientUnits="userSpaceOnUse">
<stop stop-color="#D1D3D4"/>
<stop offset="1" stop-color="#F1F2F2"/>
</linearGradient>
<linearGradient id="paint72_linear_44_4012" x1="631.575" y1="760.502" x2="621.02" y2="760.502" gradientUnits="userSpaceOnUse">
<stop stop-color="#E6E7E8"/>
<stop offset="1" stop-color="#BCBEC0"/>
</linearGradient>
<linearGradient id="paint73_linear_44_4012" x1="1279.49" y1="822.323" x2="1227.92" y2="781.31" gradientUnits="userSpaceOnUse">
<stop stop-color="white"/>
<stop offset="1" stop-color="#231F20"/>
</linearGradient>
<linearGradient id="paint74_linear_44_4012" x1="1133.38" y1="649.375" x2="1170.93" y2="650.129" gradientUnits="userSpaceOnUse">
<stop stop-color="#E6E7E8"/>
<stop offset="1" stop-color="white"/>
</linearGradient>
<linearGradient id="paint75_linear_44_4012" x1="1248.88" y1="761.256" x2="1204.25" y2="766.533" gradientUnits="userSpaceOnUse">
<stop stop-color="#D1D3D4"/>
<stop offset="1" stop-color="#F1F2F2"/>
</linearGradient>
<linearGradient id="paint76_linear_44_4012" x1="1188.42" y1="761.859" x2="1177.86" y2="761.859" gradientUnits="userSpaceOnUse">
<stop stop-color="#E6E7E8"/>
<stop offset="1" stop-color="#BCBEC0"/>
</linearGradient>
<linearGradient id="paint77_linear_44_4012" x1="1127.5" y1="927.72" x2="1075.93" y2="886.556" gradientUnits="userSpaceOnUse">
<stop stop-color="white"/>
<stop offset="1" stop-color="#231F20"/>
</linearGradient>
<linearGradient id="paint78_linear_44_4012" x1="981.391" y1="754.772" x2="1018.94" y2="755.526" gradientUnits="userSpaceOnUse">
<stop stop-color="#E6E7E8"/>
<stop offset="1" stop-color="white"/>
</linearGradient>
<linearGradient id="paint79_linear_44_4012" x1="1097.04" y1="866.502" x2="1052.26" y2="871.93" gradientUnits="userSpaceOnUse">
<stop stop-color="#D1D3D4"/>
<stop offset="1" stop-color="#F1F2F2"/>
</linearGradient>
<linearGradient id="paint80_linear_44_4012" x1="1036.43" y1="867.256" x2="1025.87" y2="867.256" gradientUnits="userSpaceOnUse">
<stop stop-color="#E6E7E8"/>
<stop offset="1" stop-color="#BCBEC0"/>
</linearGradient>
<linearGradient id="paint81_linear_44_4012" x1="993.605" y1="606.703" x2="951.989" y2="562.825" gradientUnits="userSpaceOnUse">
<stop stop-color="white"/>
<stop offset="1" stop-color="#231F20"/>
</linearGradient>
<radialGradient id="paint82_radial_44_4012" cx="0" cy="0" r="1" gradientUnits="userSpaceOnUse" gradientTransform="translate(1489.95 1155.84) scale(99.0643 99.0643)">
<stop stop-color="#231F20"/>
<stop offset="1" stop-color="#F1F2F2"/>
</radialGradient>
<radialGradient id="paint83_radial_44_4012" cx="0" cy="0" r="1" gradientUnits="userSpaceOnUse" gradientTransform="translate(1405.51 1083.62) scale(99.0643 99.0643)">
<stop stop-color="#231F20"/>
<stop offset="1" stop-color="#F1F2F2"/>
</radialGradient>
<radialGradient id="paint84_radial_44_4012" cx="0" cy="0" r="1" gradientUnits="userSpaceOnUse" gradientTransform="translate(1277.35 1119.05) scale(99.0643 99.0643)">
<stop stop-color="#231F20"/>
<stop offset="1" stop-color="#F1F2F2"/>
</radialGradient>
<radialGradient id="paint85_radial_44_4012" cx="0" cy="0" r="1" gradientUnits="userSpaceOnUse" gradientTransform="translate(1144.21 1087.38) scale(99.0643 99.0643)">
<stop stop-color="#231F20"/>
<stop offset="1" stop-color="#F1F2F2"/>
</radialGradient>
<radialGradient id="paint86_radial_44_4012" cx="0" cy="0" r="1" gradientUnits="userSpaceOnUse" gradientTransform="translate(813.992 1156.59) scale(99.0643 99.0643)">
<stop stop-color="#231F20"/>
<stop offset="1" stop-color="#F1F2F2"/>
</radialGradient>
<radialGradient id="paint87_radial_44_4012" cx="0" cy="0" r="1" gradientUnits="userSpaceOnUse" gradientTransform="translate(296.355 1229.42) scale(164.806 164.806)">
<stop stop-color="#231F20"/>
<stop offset="1" stop-color="#F1F2F2"/>
</radialGradient>
</defs>
</svg>
